<svg width="1200" height="630" viewBox="0 0 1200 630" xmlns="http://www.w3.org/2000/svg">
  <defs>
    <linearGradient id="bgGradient" x1="0%" y1="0%" x2="100%" y2="100%">
      <stop offset="0%" style="stop-color:#1a1a1a"/>
      <stop offset="100%" style="stop-color:#0a0a0a"/>
    </linearGradient>
  </defs>

  <!-- Background -->
  <rect width="1200" height="630" fill="url(#bgGradient)"/>

  <!-- Dashboard pattern (right side) -->
  <g opacity="0.1" transform="translate(700, 100)">
    <!-- Chart bars -->
    <rect x="0" y="200" width="40" height="150" rx="4" fill="#81b64c"/>
    <rect x="60" y="150" width="40" height="200" rx="4" fill="#81b64c"/>
    <rect x="120" y="100" width="40" height="250" rx="4" fill="#81b64c"/>
    <rect x="180" y="180" width="40" height="170" rx="4" fill="#81b64c"/>
    <rect x="240" y="80" width="40" height="270" rx="4" fill="#81b64c"/>
    <rect x="300" y="120" width="40" height="230" rx="4" fill="#81b64c"/>
    <rect x="360" y="50" width="40" height="300" rx="4" fill="#81b64c"/>

    <!-- Grid lines -->
    <line x1="0" y1="350" x2="400" y2="350" stroke="#81b64c" stroke-width="2"/>
    <line x1="0" y1="0" x2="0" y2="350" stroke="#81b64c" stroke-width="2"/>
  </g>

  <!-- Green accent bar -->
  <rect x="0" y="0" width="8" height="630" fill="#81b64c"/>

  <!-- Admin icon -->
  <circle cx="130" cy="315" r="80" fill="#81b64c" opacity="0.15"/>
  <text x="130" y="350" font-family="-apple-system, sans-serif" font-size="70" fill="#81b64c" text-anchor="middle">⚙</text>

  <!-- Main title -->
  <text x="260" y="260" font-family="-apple-system, BlinkMacSystemFont, sans-serif" font-size="80" font-weight="700" fill="#ffffff">KROG Admin</text>

  <!-- Subtitle -->
  <text x="260" y="330" font-family="-apple-system, BlinkMacSystemFont, sans-serif" font-size="32" fill="#81b64c">Analytics Dashboard</text>

  <!-- Description -->
  <text x="260" y="390" font-family="-apple-system, BlinkMacSystemFont, sans-serif" font-size="24" fill="#888888">Monitor KROG framework usage and game statistics</text>

  <!-- Feature badges -->
  <g transform="translate(260, 440)">
    <rect x="0" y="0" width="110" height="40" rx="20" fill="#2a2a2a"/>
    <text x="55" y="27" font-family="-apple-system, sans-serif" font-size="16" fill="#81b64c" text-anchor="middle">Analytics</text>

    <rect x="125" y="0" width="100" height="40" rx="20" fill="#2a2a2a"/>
    <text x="175" y="27" font-family="-apple-system, sans-serif" font-size="16" fill="#81b64c" text-anchor="middle">R-Types</text>

    <rect x="240" y="0" width="90" height="40" rx="20" fill="#2a2a2a"/>
    <text x="285" y="27" font-family="-apple-system, sans-serif" font-size="16" fill="#81b64c" text-anchor="middle">Games</text>

    <rect x="345" y="0" width="90" height="40" rx="20" fill="#2a2a2a"/>
    <text x="390" y="27" font-family="-apple-system, sans-serif" font-size="16" fill="#81b64c" text-anchor="middle">Users</text>
  </g>

  <!-- URL -->
  <text x="260" y="550" font-family="-apple-system, BlinkMacSystemFont, sans-serif" font-size="22" fill="#666666">admin.kroggames.com</text>
</svg>
