<svg width="1200" height="630" viewBox="0 0 1200 630" xmlns="http://www.w3.org/2000/svg">
  <defs>
    <linearGradient id="bgGradient" x1="0%" y1="0%" x2="100%" y2="100%">
      <stop offset="0%" style="stop-color:#1a1a1a"/>
      <stop offset="100%" style="stop-color:#0a0a0a"/>
    </linearGradient>
  </defs>

  <!-- Background -->
  <rect width="1200" height="630" fill="url(#bgGradient)"/>

  <!-- Chess board pattern (decorative, right side) -->
  <g opacity="0.12" transform="translate(700, 80)">
    <rect x="0" y="0" width="55" height="55" fill="#f0d9b5"/>
    <rect x="55" y="0" width="55" height="55" fill="#b58863"/>
    <rect x="110" y="0" width="55" height="55" fill="#f0d9b5"/>
    <rect x="165" y="0" width="55" height="55" fill="#b58863"/>
    <rect x="220" y="0" width="55" height="55" fill="#f0d9b5"/>
    <rect x="275" y="0" width="55" height="55" fill="#b58863"/>
    <rect x="330" y="0" width="55" height="55" fill="#f0d9b5"/>
    <rect x="385" y="0" width="55" height="55" fill="#b58863"/>

    <rect x="0" y="55" width="55" height="55" fill="#b58863"/>
    <rect x="55" y="55" width="55" height="55" fill="#f0d9b5"/>
    <rect x="110" y="55" width="55" height="55" fill="#b58863"/>
    <rect x="165" y="55" width="55" height="55" fill="#f0d9b5"/>
    <rect x="220" y="55" width="55" height="55" fill="#b58863"/>
    <rect x="275" y="55" width="55" height="55" fill="#f0d9b5"/>
    <rect x="330" y="55" width="55" height="55" fill="#b58863"/>
    <rect x="385" y="55" width="55" height="55" fill="#f0d9b5"/>

    <rect x="0" y="110" width="55" height="55" fill="#f0d9b5"/>
    <rect x="55" y="110" width="55" height="55" fill="#b58863"/>
    <rect x="110" y="110" width="55" height="55" fill="#f0d9b5"/>
    <rect x="165" y="110" width="55" height="55" fill="#b58863"/>
    <rect x="220" y="110" width="55" height="55" fill="#f0d9b5"/>
    <rect x="275" y="110" width="55" height="55" fill="#b58863"/>
    <rect x="330" y="110" width="55" height="55" fill="#f0d9b5"/>
    <rect x="385" y="110" width="55" height="55" fill="#b58863"/>

    <rect x="0" y="165" width="55" height="55" fill="#b58863"/>
    <rect x="55" y="165" width="55" height="55" fill="#f0d9b5"/>
    <rect x="110" y="165" width="55" height="55" fill="#b58863"/>
    <rect x="165" y="165" width="55" height="55" fill="#f0d9b5"/>
    <rect x="220" y="165" width="55" height="55" fill="#b58863"/>
    <rect x="275" y="165" width="55" height="55" fill="#f0d9b5"/>
    <rect x="330" y="165" width="55" height="55" fill="#b58863"/>
    <rect x="385" y="165" width="55" height="55" fill="#f0d9b5"/>

    <rect x="0" y="220" width="55" height="55" fill="#f0d9b5"/>
    <rect x="55" y="220" width="55" height="55" fill="#b58863"/>
    <rect x="110" y="220" width="55" height="55" fill="#f0d9b5"/>
    <rect x="165" y="220" width="55" height="55" fill="#b58863"/>
    <rect x="220" y="220" width="55" height="55" fill="#f0d9b5"/>
    <rect x="275" y="220" width="55" height="55" fill="#b58863"/>
    <rect x="330" y="220" width="55" height="55" fill="#f0d9b5"/>
    <rect x="385" y="220" width="55" height="55" fill="#b58863"/>

    <rect x="0" y="275" width="55" height="55" fill="#b58863"/>
    <rect x="55" y="275" width="55" height="55" fill="#f0d9b5"/>
    <rect x="110" y="275" width="55" height="55" fill="#b58863"/>
    <rect x="165" y="275" width="55" height="55" fill="#f0d9b5"/>
    <rect x="220" y="275" width="55" height="55" fill="#b58863"/>
    <rect x="275" y="275" width="55" height="55" fill="#f0d9b5"/>
    <rect x="330" y="275" width="55" height="55" fill="#b58863"/>
    <rect x="385" y="275" width="55" height="55" fill="#f0d9b5"/>

    <rect x="0" y="330" width="55" height="55" fill="#f0d9b5"/>
    <rect x="55" y="330" width="55" height="55" fill="#b58863"/>
    <rect x="110" y="330" width="55" height="55" fill="#f0d9b5"/>
    <rect x="165" y="330" width="55" height="55" fill="#b58863"/>
    <rect x="220" y="330" width="55" height="55" fill="#f0d9b5"/>
    <rect x="275" y="330" width="55" height="55" fill="#b58863"/>
    <rect x="330" y="330" width="55" height="55" fill="#f0d9b5"/>
    <rect x="385" y="330" width="55" height="55" fill="#b58863"/>

    <rect x="0" y="385" width="55" height="55" fill="#b58863"/>
    <rect x="55" y="385" width="55" height="55" fill="#f0d9b5"/>
    <rect x="110" y="385" width="55" height="55" fill="#b58863"/>
    <rect x="165" y="385" width="55" height="55" fill="#f0d9b5"/>
    <rect x="220" y="385" width="55" height="55" fill="#b58863"/>
    <rect x="275" y="385" width="55" height="55" fill="#f0d9b5"/>
    <rect x="330" y="385" width="55" height="55" fill="#b58863"/>
    <rect x="385" y="385" width="55" height="55" fill="#f0d9b5"/>
  </g>

  <!-- Green accent bar -->
  <rect x="0" y="0" width="8" height="630" fill="#81b64c"/>

  <!-- Knight icon with circle background -->
  <circle cx="130" cy="315" r="80" fill="#81b64c" opacity="0.15"/>
  <text x="130" y="345" font-family="serif" font-size="100" fill="#81b64c" text-anchor="middle">♞</text>

  <!-- Main title -->
  <text x="260" y="260" font-family="-apple-system, BlinkMacSystemFont, sans-serif" font-size="80" font-weight="700" fill="#ffffff">KROG Chess</text>

  <!-- Subtitle -->
  <text x="260" y="330" font-family="-apple-system, BlinkMacSystemFont, sans-serif" font-size="32" fill="#81b64c">Play Chess with Formal Rule Explanations</text>

  <!-- Description -->
  <text x="260" y="390" font-family="-apple-system, BlinkMacSystemFont, sans-serif" font-size="24" fill="#888888">Every move validated using mathematical modal logic</text>

  <!-- Features row -->
  <g transform="translate(260, 440)">
    <rect x="0" y="0" width="130" height="40" rx="20" fill="#2a2a2a"/>
    <text x="65" y="27" font-family="-apple-system, sans-serif" font-size="16" fill="#81b64c" text-anchor="middle">Multiplayer</text>

    <rect x="145" y="0" width="100" height="40" rx="20" fill="#2a2a2a"/>
    <text x="195" y="27" font-family="-apple-system, sans-serif" font-size="16" fill="#81b64c" text-anchor="middle">Puzzles</text>

    <rect x="260" y="0" width="100" height="40" rx="20" fill="#2a2a2a"/>
    <text x="310" y="27" font-family="-apple-system, sans-serif" font-size="16" fill="#81b64c" text-anchor="middle">Lessons</text>

    <rect x="375" y="0" width="120" height="40" rx="20" fill="#2a2a2a"/>
    <text x="435" y="27" font-family="-apple-system, sans-serif" font-size="16" fill="#81b64c" text-anchor="middle">ELO Rating</text>
  </g>

  <!-- URL -->
  <text x="260" y="550" font-family="-apple-system, BlinkMacSystemFont, sans-serif" font-size="22" fill="#666666">chess.kroggames.com</text>
</svg>
